<svg width="256" height="302" viewBox="0 0 256 302" fill="none" xmlns="http://www.w3.org/2000/svg">
<g clip-path="url(#clip0_2814_3614)">
<path d="M217.168 23.5074C203.234 7.62541 178.046 0.816406 145.823 0.816406H52.3032C49.1149 0.815915 46.031 1.95312 43.6063 4.02346C41.1817 6.0938 39.5753 8.96139 39.0762 12.1104L0.136206 259.077C-0.637794 263.947 3.13321 268.357 8.06921 268.357H65.8052L80.3052 176.386L79.8552 179.266C80.8882 172.765 86.4482 167.97 93.0322 167.97H120.468C174.366 167.97 216.569 146.078 228.897 82.7494C229.263 80.8764 229.58 79.0534 229.854 77.2724C228.298 76.4484 228.298 76.4484 229.854 77.2724C233.525 53.8654 229.829 37.9324 217.168 23.5074Z" fill="#27346A"/>
<path d="M102.397 68.8404C103.975 68.0876 105.702 67.6981 107.45 67.7004H180.768C189.45 67.7004 197.548 68.2654 204.948 69.4564C207.019 69.7868 209.079 70.181 211.125 70.6384C214.026 71.2785 216.892 72.0618 219.715 72.9854C223.353 74.2004 226.741 75.6154 229.855 77.2724C233.525 53.8564 229.829 37.9324 217.168 23.5074C203.226 7.62541 178.046 0.816406 145.823 0.816406H52.2952C45.7102 0.816406 40.1082 5.61041 39.0762 12.1104L0.136212 259.068C-0.637788 263.946 3.13321 268.35 8.06121 268.35H65.8052L95.8882 77.5804C96.1843 75.7054 96.9313 73.9303 98.0651 72.4079C99.1989 70.8854 100.686 69.6612 102.397 68.8404Z" fill="#27346A"/>
<path d="M228.897 82.7495C216.569 146.069 174.367 167.97 120.468 167.97H93.0242C86.4402 167.97 80.8792 172.765 79.8562 179.266L61.8172 293.621C61.1432 297.883 64.4392 301.745 68.7512 301.745H117.421C120.209 301.745 122.905 300.749 125.025 298.938C127.145 297.127 128.549 294.619 128.984 291.865L129.458 289.385L138.631 231.249L139.222 228.036C139.658 225.283 141.062 222.775 143.181 220.964C145.3 219.153 147.996 218.157 150.784 218.156H158.068C205.215 218.156 242.132 199.002 252.92 143.606C257.423 120.456 255.093 101.128 243.181 87.5525C239.568 83.4405 235.081 80.0445 229.854 77.2725C229.571 79.0625 229.264 80.8765 228.897 82.7495Z" fill="#2790C3"/>
<path d="M216.952 72.1282C215.03 71.567 213.09 71.07 211.134 70.6382C209.087 70.1881 207.027 69.7966 204.957 69.4642C197.549 68.2652 189.457 67.6992 180.767 67.6992H107.458C105.709 67.6963 103.981 68.0891 102.405 68.8482C100.691 69.6661 99.2028 70.8895 98.0685 72.4124C96.9341 73.9354 96.1881 75.712 95.8953 77.5882L80.3133 176.386L79.8633 179.266C80.8883 172.765 86.4483 167.97 93.0333 167.97H120.477C174.375 167.97 216.577 146.078 228.905 82.7492C229.272 80.8762 229.58 79.0612 229.863 77.2722C226.742 75.6256 223.362 74.1992 219.723 72.9932C218.805 72.6888 217.882 72.4004 216.953 72.1282" fill="#1F264F"/>
</g>
<defs>
<clipPath id="clip0_2814_3614">
<rect width="256" height="302" fill="white"/>
</clipPath>
</defs>
</svg>
