<svg width="421" height="423" viewBox="0 0 421 423" fill="none" xmlns="http://www.w3.org/2000/svg">
<defs>
<linearGradient id="paint0_linear_1_1998" x1="265.19" y1="317.92" x2="381.47" y2="317.92" gradientUnits="userSpaceOnUse">
<stop stop-color="#CACFDD"/>
<stop offset="1" stop-color="#EEF0F1"/>
</linearGradient>
</defs>
<path d="M381.47 56V349.31C381.467 354.016 379.596 358.528 376.268 361.855C372.939 365.181 368.426 367.05 363.72 367.05H51.72C47.0185 367.045 42.5114 365.173 39.1889 361.847C35.8663 358.521 34 354.012 34 349.31V56C34 51.3037 35.8621 46.7991 39.1782 43.4736C42.4943 40.1481 46.9937 38.2733 51.69 38.26H363.69C366.023 38.2561 368.333 38.712 370.49 39.6016C372.646 40.4912 374.606 41.7972 376.257 43.4447C377.908 45.0923 379.219 47.0492 380.113 49.2035C381.008 51.3579 381.469 53.6674 381.47 56Z" fill="#F5F5F5"/>
<path style="mix-blend-mode:multiply" d="M381.47 275.78V349.32C381.467 354.026 379.596 358.538 376.268 361.865C372.939 365.191 368.426 367.06 363.72 367.06H266.65C257.02 316.17 296.26 268.79 348.17 268.79C359.636 268.774 370.978 271.155 381.47 275.78Z" fill="url(#paint0_linear_1_1998)"/>
<path d="M363.72 370.05H51.72C46.2245 370.039 40.9574 367.85 37.0734 363.962C33.1893 360.075 31.0053 354.806 31 349.31V56C31.0053 50.5097 33.1852 45.245 37.0628 41.3581C40.9403 37.4712 46.1997 35.2785 51.69 35.26H363.69C369.195 35.2574 374.476 37.4403 378.372 41.3293C382.269 45.2182 384.462 50.4949 384.47 56V349.31C384.462 354.81 382.273 360.082 378.383 363.97C374.493 367.858 369.22 370.045 363.72 370.05ZM51.69 41.26C47.7902 41.2759 44.0554 42.8355 41.3025 45.5978C38.5496 48.3601 37.0026 52.1002 37 56V349.31C37.0026 353.218 38.5565 356.966 41.3202 359.73C44.0839 362.494 47.8315 364.047 51.74 364.05H363.74C367.649 364.047 371.398 362.494 374.163 359.73C376.929 356.967 378.485 353.219 378.49 349.31V56C378.485 52.0906 376.929 48.343 374.163 45.5796C371.398 42.8161 367.649 41.2627 363.74 41.26H51.69Z" fill="#5E6175"/>
<path d="M381.47 56V77.78H34V56C34 51.3037 35.8621 46.7991 39.1782 43.4736C42.4943 40.1481 46.9937 38.2733 51.69 38.26H363.69C366.023 38.2561 368.333 38.712 370.49 39.6016C372.646 40.4912 374.606 41.7972 376.257 43.4447C377.908 45.0923 379.219 47.0492 380.113 49.2035C381.008 51.3579 381.469 53.6674 381.47 56Z" fill="#5E6175"/>
<path d="M60.68 65.7001C64.9215 65.7001 68.36 62.2616 68.36 58.0201C68.36 53.7785 64.9215 50.3401 60.68 50.3401C56.4385 50.3401 53 53.7785 53 58.0201C53 62.2616 56.4385 65.7001 60.68 65.7001Z" fill="#F5F5F5"/>
<path d="M89.7601 65.7001C94.0016 65.7001 97.4401 62.2616 97.4401 58.0201C97.4401 53.7785 94.0016 50.3401 89.7601 50.3401C85.5185 50.3401 82.0801 53.7785 82.0801 58.0201C82.0801 62.2616 85.5185 65.7001 89.7601 65.7001Z" fill="#F5F5F5"/>
<path d="M210.12 295.12C264.885 295.12 309.28 250.725 309.28 195.96C309.28 141.195 264.885 96.8 210.12 96.8C155.356 96.8 110.96 141.195 110.96 195.96C110.96 250.725 155.356 295.12 210.12 295.12Z" fill="#DEE1EC"/>
<path d="M229 343.81H191.24C188.548 343.81 185.966 342.741 184.063 340.837C182.159 338.934 181.09 336.352 181.09 333.66C181.09 330.968 182.159 328.386 184.063 326.483C185.966 324.579 188.548 323.51 191.24 323.51H229C231.692 323.51 234.274 324.579 236.177 326.483C238.081 328.386 239.15 330.968 239.15 333.66C239.15 336.352 238.081 338.934 236.177 340.837C234.274 342.741 231.692 343.81 229 343.81Z" fill="#A9AFC4"/>
<path d="M348.17 419.68C385.698 419.68 416.12 389.258 416.12 351.73C416.12 314.202 385.698 283.78 348.17 283.78C310.642 283.78 280.22 314.202 280.22 351.73C280.22 389.258 310.642 419.68 348.17 419.68Z" fill="#F5F5F5"/>
<path d="M348.17 422.67C334.137 422.672 320.418 418.512 308.749 410.717C297.079 402.922 287.984 391.841 282.613 378.876C277.241 365.911 275.835 351.645 278.573 337.881C281.31 324.117 288.068 311.474 297.991 301.551C307.914 291.628 320.557 284.87 334.321 282.133C348.085 279.396 362.351 280.801 375.316 286.173C388.281 291.544 399.362 300.639 407.157 312.309C414.952 323.978 419.112 337.697 419.11 351.73C419.094 370.54 411.615 388.574 398.315 401.875C385.014 415.175 366.98 422.654 348.17 422.67ZM348.17 286.78C335.326 286.778 322.769 290.584 312.088 297.718C301.407 304.851 293.081 314.991 288.162 326.856C283.243 338.721 281.952 351.778 284.453 364.377C286.954 376.975 293.134 388.549 302.212 397.635C311.29 406.722 322.859 412.913 335.455 415.425C348.051 417.938 361.109 416.659 372.978 411.751C384.848 406.843 394.996 398.526 402.139 387.852C409.282 377.177 413.1 364.624 413.11 351.78C413.11 334.551 406.27 318.027 394.093 305.839C381.916 293.651 365.399 286.796 348.17 286.78Z" fill="#5E6175"/>
<path d="M199.6 219.85C199.757 212.383 201.645 205.055 205.116 198.441C208.586 191.828 213.544 186.111 219.6 181.74C221.839 180.133 223.635 177.986 224.821 175.499C226.006 173.011 226.543 170.264 226.381 167.513C226.219 164.762 225.364 162.097 223.895 159.766C222.426 157.435 220.39 155.513 217.978 154.18C215.567 152.847 212.857 152.146 210.101 152.143C207.346 152.139 204.634 152.833 202.218 154.159C199.803 155.486 197.763 157.402 196.287 159.729C194.812 162.057 193.949 164.72 193.78 167.47H172.74C172.91 161.109 174.701 154.897 177.943 149.421C181.184 143.946 185.77 139.388 191.265 136.18C196.76 132.972 202.983 131.219 209.345 131.088C215.706 130.956 221.996 132.45 227.619 135.429C233.242 138.408 238.012 142.772 241.477 148.109C244.942 153.446 246.988 159.579 247.42 165.927C247.853 172.276 246.658 178.629 243.949 184.387C241.241 190.145 237.107 195.116 231.94 198.83C228.59 201.245 225.834 204.391 223.882 208.029C221.929 211.668 220.831 215.704 220.67 219.83L199.6 219.85Z" fill="#5E6175"/>
<path d="M220.49 239.68H199.33V260.84H220.49V239.68Z" fill="#5E6175"/>
<path d="M365.84 358.29C369.761 351.919 371.206 344.331 369.901 336.965C368.597 329.599 364.633 322.968 358.763 318.331C352.892 313.694 345.524 311.374 338.056 311.811C330.588 312.248 323.541 315.411 318.251 320.701C312.962 325.991 309.798 333.038 309.361 340.506C308.924 347.974 311.244 355.342 315.881 361.213C320.518 367.083 327.149 371.047 334.515 372.351C341.881 373.656 349.469 372.211 355.84 368.29C362.11 378.95 367.42 383.62 376.47 392.67C381.907 388.972 386.537 384.209 390.08 378.67C381.19 369.9 376.47 364.55 365.84 358.29ZM350.84 353.29C348.667 355.453 345.901 356.924 342.893 357.517C339.884 358.11 336.767 357.798 333.936 356.622C331.104 355.445 328.684 353.456 326.982 350.905C325.28 348.354 324.372 345.356 324.372 342.29C324.372 339.224 325.28 336.226 326.982 333.675C328.684 331.124 331.104 329.135 333.936 327.958C336.767 326.782 339.884 326.47 342.893 327.063C345.901 327.656 348.667 329.127 350.84 331.29C352.284 332.736 353.429 334.453 354.209 336.342C354.988 338.232 355.387 340.257 355.382 342.3C355.378 344.344 354.97 346.367 354.182 348.253C353.394 350.139 352.241 351.851 350.79 353.29H350.84Z" fill="#41AD49"/>
<path d="M293.15 413.46H287.15V407.46H293.15V413.46ZM277.15 413.46H271.15V407.46H277.15V413.46ZM261.15 413.46H255.15V407.46H261.15V413.46ZM245.15 413.46H239.15V407.46H245.15V413.46ZM229.15 413.46H223.15V407.46H229.15V413.46ZM213.15 413.46H207.15V407.46H213.15V413.46ZM197.15 413.46H191.15V407.46H197.15V413.46ZM181.15 413.46H175.15V407.46H181.15V413.46ZM165.15 413.46H159.15V407.46H165.15V413.46ZM149.15 413.46H143.15V407.46H149.15V413.46Z" fill="#A9AFC4"/>
<path d="M149.17 398.47H143.17V392.47H149.17V398.47ZM149.17 382.47H143.17V376.92H149.17V382.47Z" fill="#A9AFC4"/>
<path d="M402.048 13.6126L388.7 26.9651L392.944 31.207L406.292 17.8545L402.048 13.6126Z" fill="#5E6175"/>
<path d="M378.26 0.330078H372.26V19.2101H378.26V0.330078Z" fill="#5E6175"/>
<path d="M420.12 40.53H401.24V46.53H420.12V40.53Z" fill="#5E6175"/>
<path d="M10.3101 382.9C8.44419 382.902 6.61961 382.35 5.06733 381.315C3.51504 380.28 2.30482 378.807 1.58985 377.083C0.874876 375.36 0.68729 373.463 1.05083 371.633C1.41437 369.803 2.31269 368.121 3.63211 366.802C4.95152 365.483 6.6327 364.584 8.46287 364.221C10.293 363.857 12.1899 364.045 13.9134 364.76C15.637 365.475 17.1096 366.685 18.145 368.237C19.1805 369.79 19.7321 371.614 19.7301 373.48C19.7248 375.977 18.7307 378.37 16.9652 380.135C15.1998 381.901 12.8068 382.895 10.3101 382.9ZM10.3101 370.05C9.63131 370.048 8.96717 370.248 8.40179 370.623C7.83642 370.999 7.39523 371.534 7.13409 372.161C6.87295 372.787 6.80359 373.477 6.93481 374.143C7.06603 374.809 7.39191 375.421 7.8712 375.902C8.3505 376.383 8.96165 376.71 9.62727 376.843C10.2929 376.977 10.9831 376.909 11.6104 376.65C12.2377 376.391 12.774 375.951 13.1514 375.387C13.5287 374.822 13.7301 374.159 13.7301 373.48C13.7275 372.573 13.3666 371.703 12.7261 371.061C12.0856 370.419 11.2173 370.055 10.3101 370.05Z" fill="#5E6175"/>
<path d="M54.1002 416.24C51.544 416.244 49.0441 415.49 46.9167 414.072C44.7894 412.655 43.1303 410.639 42.1494 408.278C41.1684 405.918 40.9097 403.319 41.406 400.812C41.9022 398.304 43.1312 396 44.9373 394.191C46.7434 392.383 49.0455 391.15 51.5522 390.65C54.059 390.15 56.6578 390.404 59.0198 391.382C61.3818 392.359 63.4008 394.015 64.8214 396.14C66.2419 398.265 67.0002 400.764 67.0002 403.32C66.9975 406.742 65.6382 410.024 63.2201 412.446C60.8021 414.868 57.5225 416.232 54.1002 416.24ZM54.1002 396.41C52.7307 396.408 51.3914 396.813 50.2519 397.572C49.1123 398.332 48.2238 399.412 47.6988 400.677C47.1738 401.942 47.036 403.334 47.3026 404.678C47.5693 406.021 48.2286 407.255 49.197 408.223C50.1654 409.192 51.3993 409.851 52.7426 410.118C54.0859 410.384 55.4781 410.246 56.743 409.721C58.0078 409.196 59.0885 408.308 59.8481 407.168C60.6077 406.029 61.0121 404.69 61.0102 403.32C61.0075 401.488 60.2786 399.732 58.9833 398.437C57.688 397.142 55.932 396.413 54.1002 396.41Z" fill="#5E6175"/>
<path d="M149.17 357.84H143.17V351.84H149.17V357.84ZM149.17 341.84H143.17V335.84H149.17V341.84ZM149.17 325.84H143.17V319.84H149.17V325.84ZM149.17 309.84H143.17V303.84H149.17V309.84ZM149.17 293.84H143.17V287.84H149.17V293.84Z" fill="#A9AFC4"/>
</svg>
