<svg width="24" height="24" viewBox="0 0 24 24" fill="none" xmlns="http://www.w3.org/2000/svg">
<g clip-path="url(#clip0_354_201)">
<path d="M24 19C24 20.654 22.654 22 21 22V23C21 23.552 20.553 24 20 24C19.447 24 19 23.552 19 23V22H18.732C17.665 22 16.669 21.426 16.134 20.501C15.857 20.023 16.021 19.412 16.498 19.135C16.978 18.858 17.589 19.022 17.864 19.5C18.043 19.808 18.375 20 18.731 20H20.999C21.551 20 21.999 19.551 21.999 19C21.999 18.622 21.728 18.302 21.355 18.24L18.314 17.733C16.972 17.51 15.999 16.36 15.999 15C15.999 13.346 17.345 12 18.999 12V11C18.999 10.448 19.446 10 19.999 10C20.552 10 20.999 10.448 20.999 11V12H21.267C22.334 12 23.33 12.575 23.865 13.5C24.142 13.978 23.978 14.589 23.501 14.866C23.02 15.142 22.41 14.978 22.135 14.501C21.956 14.192 21.624 14.001 21.268 14.001H19C18.448 14.001 18 14.45 18 15.001C18 15.379 18.271 15.699 18.644 15.761L21.685 16.268C23.027 16.491 24 17.64 24 19ZM13 8H19.54C19.193 7.087 18.66 6.247 17.949 5.536L14.465 2.05C13.753 1.339 12.913 0.806 12 0.46V7C12 7.551 12.448 8 13 8ZM16.869 23.637C16.291 23.871 15.661 24 15 24H5C2.243 24 0 21.757 0 19V5C0 2.243 2.243 0 5 0H9.515C9.678 0 9.839 0.013 10 0.024V7C10 8.654 11.346 10 13 10H17.172C17.127 10.127 17.09 10.257 17.062 10.391C15.832 10.91 14.851 11.909 14.354 13.151C14.087 13.054 13.799 13 13.499 13H6.5C5.122 13 4 14.122 4 15.5V17.5C4 18.878 5.122 20 6.5 20H13.5C13.671 20 13.838 19.983 13.999 19.95C13.989 20.49 14.126 21.024 14.403 21.502C14.969 22.482 15.847 23.226 16.869 23.638V23.637ZM4 6C4 6.552 4.448 7 5 7H7C7.552 7 8 6.552 8 6C8 5.448 7.552 5 7 5H5C4.448 5 4 5.448 4 6ZM4 10C4 10.552 4.448 11 5 11H7C7.552 11 8 10.552 8 10C8 9.448 7.552 9 7 9H5C4.448 9 4 9.448 4 10ZM6.5 15C6.224 15 6 15.224 6 15.5V17.5C6 17.776 6.224 18 6.5 18H13.5C13.776 18 14 17.776 14 17.5V15.5C14 15.224 13.776 15 13.5 15H6.5Z" fill="#292834"/>
</g>
<defs>
<clipPath id="clip0_354_201">
<rect width="24" height="24" fill="white"/>
</clipPath>
</defs>
</svg>
