<svg width="25" height="24" viewBox="0 0 25 24" fill="none" xmlns="http://www.w3.org/2000/svg">
<path d="M5.7666 17.6002V3.2002H20.1666V17.6002C20.1666 19.3674 18.7338 20.8002 16.9666 20.8002" stroke="#F2E3CF" stroke-width="2" stroke-miterlimit="10" stroke-linecap="round" stroke-linejoin="round"/>
<path d="M13.7667 17.6001H3.3667C3.3667 19.3673 4.7995 20.8001 6.5667 20.8001H16.9667C15.1995 20.8001 13.7667 19.3673 13.7667 17.6001Z" stroke="#F2E3CF" stroke-width="2" stroke-miterlimit="10" stroke-linecap="round" stroke-linejoin="round"/>
<path d="M12.1665 10.3999H16.9665" stroke="#F2E3CF" stroke-width="2" stroke-miterlimit="10" stroke-linejoin="round"/>
<path d="M8.96631 10.3999H10.5663" stroke="#F2E3CF" stroke-width="2" stroke-miterlimit="10" stroke-linejoin="round"/>
<path d="M12.1665 13.6001H16.9665" stroke="#F2E3CF" stroke-width="2" stroke-miterlimit="10" stroke-linejoin="round"/>
<path d="M8.96631 13.6001H10.5663" stroke="#F2E3CF" stroke-width="2" stroke-miterlimit="10" stroke-linejoin="round"/>
<path d="M12.1665 7.2002H16.9665" stroke="#F2E3CF" stroke-width="2" stroke-miterlimit="10" stroke-linejoin="round"/>
<path d="M8.96631 7.2002H10.5663" stroke="#F2E3CF" stroke-width="2" stroke-miterlimit="10" stroke-linejoin="round"/>
<path d="M13.7667 17.6001H3.3667C3.3667 19.3673 4.7995 20.8001 6.5667 20.8001H16.9667C15.1995 20.8001 13.7667 19.3673 13.7667 17.6001Z" fill="#F2E3CF"/>
</svg>
