<svg width="24" height="24" viewBox="0 0 24 24" fill="none" xmlns="http://www.w3.org/2000/svg">
<path d="M5.59998 17.6002V3.2002H20V17.6002C20 19.3674 18.5672 20.8002 16.8 20.8002" stroke="#292834" stroke-width="2" stroke-miterlimit="10" stroke-linecap="round" stroke-linejoin="round"/>
<path d="M13.6 17.6001H3.19995C3.19995 19.3673 4.63275 20.8001 6.39995 20.8001H16.8C15.0328 20.8001 13.6 19.3673 13.6 17.6001Z" stroke="#292834" stroke-width="2" stroke-miterlimit="10" stroke-linecap="round" stroke-linejoin="round"/>
<path d="M12 10.3999H16.8" stroke="#292834" stroke-width="2" stroke-miterlimit="10" stroke-linejoin="round"/>
<path d="M8.80005 10.3999H10.4" stroke="#292834" stroke-width="2" stroke-miterlimit="10" stroke-linejoin="round"/>
<path d="M12 13.6001H16.8" stroke="#292834" stroke-width="2" stroke-miterlimit="10" stroke-linejoin="round"/>
<path d="M8.80005 13.6001H10.4" stroke="#292834" stroke-width="2" stroke-miterlimit="10" stroke-linejoin="round"/>
<path d="M12 7.2002H16.8" stroke="#292834" stroke-width="2" stroke-miterlimit="10" stroke-linejoin="round"/>
<path d="M8.80005 7.2002H10.4" stroke="#292834" stroke-width="2" stroke-miterlimit="10" stroke-linejoin="round"/>
<path d="M13.6 17.6001H3.19995C3.19995 19.3673 4.63275 20.8001 6.39995 20.8001H16.8C15.0328 20.8001 13.6 19.3673 13.6 17.6001Z" fill="#292834"/>
</svg>
