<svg width="23" height="23" viewBox="0 0 23 23" fill="none" xmlns="http://www.w3.org/2000/svg">
<path d="M14.423 4.79183C15.359 4.97445 16.2192 5.43224 16.8936 6.1066C17.568 6.78096 18.0257 7.64121 18.2084 8.57725M14.423 0.958496C16.3677 1.17454 18.1811 2.04541 19.5656 3.42813C20.9501 4.81084 21.8232 6.62321 22.0417 8.56766M21.0834 16.2152V19.0902C21.0845 19.3571 21.0298 19.6212 20.9229 19.8658C20.8159 20.1103 20.6591 20.3299 20.4624 20.5103C20.2658 20.6907 20.0336 20.8281 19.7808 20.9136C19.5279 20.9991 19.26 21.0309 18.9942 21.0068C16.0453 20.6864 13.2126 19.6787 10.7238 18.0647C8.40829 16.5934 6.44515 14.6302 4.97379 12.3147C3.35418 9.81465 2.34627 6.9682 2.0317 4.006C2.00776 3.74099 2.03925 3.47389 2.12418 3.22172C2.20912 2.96955 2.34563 2.73782 2.52502 2.5413C2.70442 2.34478 2.92277 2.18776 3.16617 2.08025C3.40957 1.97273 3.6727 1.91708 3.93879 1.91683H6.81379C7.27887 1.91225 7.72975 2.07695 8.08239 2.38021C8.43503 2.68348 8.66536 3.10463 8.73045 3.56516C8.8518 4.48523 9.07684 5.38861 9.40129 6.25808C9.53023 6.60109 9.55813 6.97387 9.4817 7.33226C9.40527 7.69064 9.2277 8.0196 8.97004 8.28016L7.75295 9.49725C9.1172 11.8965 11.1037 13.883 13.503 15.2472L14.72 14.0302C14.9806 13.7725 15.3096 13.5949 15.6679 13.5185C16.0263 13.4421 16.3991 13.47 16.7421 13.5989C17.6116 13.9234 18.515 14.1484 19.435 14.2697C19.9006 14.3354 20.3257 14.5699 20.6296 14.9286C20.9335 15.2873 21.095 15.7452 21.0834 16.2152Z" stroke="#F2E3CF" stroke-width="1.5" stroke-linecap="round" stroke-linejoin="round"/>
</svg>
