<svg width="90" height="90" viewBox="0 0 90 90" fill="none" xmlns="http://www.w3.org/2000/svg">
<rect width="90" height="90" rx="45" fill="#635BFF"/>
<path d="M49.1187 39.0625C44.5937 37.3833 42.1271 36.0917 42.1271 34.0437C42.1271 32.3125 43.55 31.325 46.0875 31.325C50.7271 31.325 55.4937 33.1125 58.775 34.7229L60.6292 23.2771C58.0271 22.0312 52.7042 20 45.3458 20C40.1417 20 35.8125 21.3625 32.7187 23.9C29.5021 26.5562 27.8292 30.4 27.8292 35.0375C27.8292 43.4521 32.9687 47.0375 41.3208 50.0771C46.7062 51.9937 48.4979 53.3562 48.4979 55.4583C48.4979 57.5 46.7479 58.6771 43.5938 58.6771C39.6875 58.6771 33.25 56.7583 29.0313 54.2833L27.1562 65.8562C30.7833 67.8958 37.4708 70 44.4062 70C49.9083 70 54.4958 68.7 57.5896 66.2229C61.0562 63.5042 62.85 59.4812 62.85 54.2812C62.85 45.6812 57.5917 42.0917 49.1125 39.0625H49.1187Z" fill="white"/>
</svg>
